<!DOCTYPE svg PUBLIC "-//W3C//DTD SVG 1.1//EN" "http://www.w3.org/Graphics/SVG/1.1/DTD/svg11.dtd">
<!-- Uploaded to: SVG Repo, www.svgrepo.com, Transformed by: SVG Repo Mixer Tools -->
<svg fill="#000000" width="64px" height="64px" viewBox="-2.4 -2.4 28.80 28.80" xmlns="http://www.w3.org/2000/svg">
<g id="SVGRepo_bgCarrier" stroke-width="0"/>
<g id="SVGRepo_tracerCarrier" stroke-linecap="round" stroke-linejoin="round"/>
<g id="SVGRepo_iconCarrier">
<path d="M19.73,16.663A3.467,3.467,0,0,0,20.5,14.5a3.5,3.5,0,0,0-7,0,3.467,3.467,0,0,0,.77,2.163A6.04,6.04,0,0,0,12,18.69a6.04,6.04,0,0,0-2.27-2.027A3.467,3.467,0,0,0,10.5,14.5a3.5,3.5,0,0,0-7,0,3.467,3.467,0,0,0,.77,2.163A6,6,0,0,0,1,22a1,1,0,0,0,1,1H22a1,1,0,0,0,1-1A6,6,0,0,0,19.73,16.663ZM7,13a1.5,1.5,0,1,1-1.5,1.5A1.5,1.5,0,0,1,7,13ZM3.126,21a4,4,0,0,1,7.748,0ZM17,13a1.5,1.5,0,1,1-1.5,1.5A1.5,1.5,0,0,1,17,13Zm-3.873,8a4,4,0,0,1,7.746,0ZM7.2,8.4A1,1,0,0,0,8.8,9.6a4,4,0,0,1,6.4,0,1,1,0,1,0,1.6-1.2,6,6,0,0,0-2.065-1.742A3.464,3.464,0,0,0,15.5,4.5a3.5,3.5,0,0,0-7,0,3.464,3.464,0,0,0,.765,2.157A5.994,5.994,0,0,0,7.2,8.4ZM12,3a1.5,1.5,0,1,1-1.5,1.5A1.5,1.5,0,0,1,12,3Z"/>
</g>
</svg>